<?xml version="1.0" encoding="utf-8"?>
<!-- Generator: Adobe Illustrator 19.2.1, SVG Export Plug-In . SVG Version: 6.00 Build 0)  -->
<svg version="1.1" id="Layer_1" xmlns="http://www.w3.org/2000/svg" xmlns:xlink="http://www.w3.org/1999/xlink" x="0px" y="0px"
	 viewBox="0 0 124.2 17" style="enable-background:new 0 0 124.2 17;" xml:space="preserve">
<style type="text/css">
	.st0{font-family:'GillSans';}
	.st1{font-size:21.119px;}
</style>
<g id="layer1-7_1_" transform="matrix(0.38743096,0,0,0.38743096,141.29424,547.30667)" inkscape:label="Layer 1">
	<g id="g3047_1_" transform="matrix(0.82302261,0,0,-0.82302261,189.63913,997.27701)">
		<path id="path3049_1_" inkscape:connector-curvature="0" d="M-576.8,2893.7c0-5.8-6.9-5.4-6.9-5.4h-6.9v10.5h6.9
			C-576.6,2898.8-576.8,2893.7-576.8,2893.7 M-590.6,2914.7h5.2c5.4-0.3,5.2-4.5,5.2-4.5c0-5.3-6-5.4-6-5.4h-4.5V2914.7z
			 M-578.1,2902.7c0,0,4.7,2.1,4.7,7.7c0,0,0.7,9.1-10.8,10.3h-12.8v-38.3h14.7c0,0,12.3,0,12.3,10.8
			C-570.1,2893.1-569.8,2900.5-578.1,2902.7 M-611.3,2928.1h54v-53.3h-54V2928.1z"/>
	</g>
	<g id="g2186_1_" transform="matrix(0.82302261,0,0,-0.82302261,85.355129,997.27701)">
		<path id="path2188_1_" inkscape:connector-curvature="0" d="M-512.4,2893.7c0-5.8-6.9-5.4-6.9-5.4h-6.9v10.5h6.9
			C-512.2,2898.8-512.4,2893.7-512.4,2893.7 M-526.1,2914.7h5.2c5.4-0.3,5.2-4.5,5.2-4.5c0-5.3-6-5.4-6-5.4h-4.5V2914.7z
			 M-513.6,2902.7c0,0,4.7,2.1,4.7,7.7c0,0,0.7,9.1-10.8,10.3h-12.8v-38.3h14.7c0,0,12.3,0,12.3,10.8
			C-505.6,2893.1-505.4,2900.5-513.6,2902.7 M-546.8,2928.1h54v-53.3h-54V2928.1z"/>
	</g>
	<g id="g2190_1_" transform="matrix(0.82302261,0,0,-0.82302261,308.1885,958.5961)">
		<path id="path2192_1_" inkscape:connector-curvature="0" d="M-650.1,2870.9v-7.1c0,0-6.6,4.2-13.9,4.3c0,0-13.6,0.3-14.2-13.7
			c0,0-0.5-12.8,14-13.5c0,0,6.1-0.8,14.4,4.8v-7.3c0,0-11.1-6.9-24-1.6c0,0-10.8,4.1-11.2,17.7c0,0-0.5,14,14,18.6
			c0,0,3.8,1.5,10.8,0.9C-660.2,2873.9-656,2873.5-650.1,2870.9 M-693,2827.8h54v53.3h-54V2827.8z"/>
	</g>
</g>
<text transform="matrix(1 0 0 1 60.8135 16.2354)" class="st0 st1">SPORT</text>
</svg>
